<mxfile host="65bd71144e">
    <diagram id="WoPxDRuf-QjIDOLjJjYh" name="鸡架图">
        <mxGraphModel dx="988" dy="1246" grid="1" gridSize="10" guides="1" tooltips="1" connect="1" arrows="1" fold="1" page="1" pageScale="1" pageWidth="827" pageHeight="1169" math="0" shadow="0">
            <root>
                <mxCell id="0"/>
                <mxCell id="1" parent="0"/>
                <mxCell id="27" value="Client" style="rounded=0;whiteSpace=wrap;html=1;fontFamily=Comic Sans MS;fontSize=16;" parent="1" vertex="1">
                    <mxGeometry x="20" y="10" width="600" height="40" as="geometry"/>
                </mxCell>
                <mxCell id="30" value="" style="group" parent="1" vertex="1" connectable="0">
                    <mxGeometry x="20" y="370" width="600" height="90" as="geometry"/>
                </mxCell>
                <mxCell id="31" value="" style="rounded=0;whiteSpace=wrap;html=1;" parent="30" vertex="1">
                    <mxGeometry y="-6.36" width="600" height="96.36" as="geometry"/>
                </mxCell>
                <mxCell id="48" value="IO Task Scheduler" style="rounded=0;whiteSpace=wrap;html=1;fontFamily=Comic Sans MS;fontSize=16;" parent="30" vertex="1">
                    <mxGeometry x="10" y="30" width="570" height="40" as="geometry"/>
                </mxCell>
                <mxCell id="8" value="" style="rounded=0;whiteSpace=wrap;html=1;" parent="1" vertex="1">
                    <mxGeometry x="20" y="70" width="600" height="130" as="geometry"/>
                </mxCell>
                <mxCell id="11" value="&lt;span style=&quot;font-size: 25px&quot;&gt;inmmory KV&lt;/span&gt;" style="text;html=1;strokeColor=none;fillColor=none;align=center;verticalAlign=middle;whiteSpace=wrap;rounded=0;fontSize=16;fontFamily=Comic Sans MS;" parent="1" vertex="1">
                    <mxGeometry x="650" y="390" width="150" height="40" as="geometry"/>
                </mxCell>
                <mxCell id="12" value="&lt;span style=&quot;font-size: 25px&quot;&gt;server&lt;/span&gt;" style="text;html=1;strokeColor=none;fillColor=none;align=center;verticalAlign=middle;whiteSpace=wrap;rounded=0;fontSize=16;fontFamily=Comic Sans MS;" parent="1" vertex="1">
                    <mxGeometry x="640" y="110" width="80" height="40" as="geometry"/>
                </mxCell>
                <mxCell id="13" value="Net" style="rounded=0;whiteSpace=wrap;html=1;fontFamily=Comic Sans MS;fontSize=16;" parent="1" vertex="1">
                    <mxGeometry x="30" y="86" width="570" height="41" as="geometry"/>
                </mxCell>
                <mxCell id="15" value="Command Parser" style="rounded=0;whiteSpace=wrap;html=1;fontFamily=Comic Sans MS;fontSize=16;" parent="1" vertex="1">
                    <mxGeometry x="30" y="144" width="570" height="40" as="geometry"/>
                </mxCell>
                <mxCell id="26" value="" style="group" parent="1" vertex="1" connectable="0">
                    <mxGeometry x="20" y="230" width="600" height="190" as="geometry"/>
                </mxCell>
                <mxCell id="2" value="" style="rounded=0;whiteSpace=wrap;html=1;" parent="26" vertex="1">
                    <mxGeometry y="-10" width="600" height="120" as="geometry"/>
                </mxCell>
                <mxCell id="18" value="&lt;font style=&quot;font-size: 18px&quot;&gt;rm&lt;/font&gt;" style="rounded=0;whiteSpace=wrap;html=1;" parent="26" vertex="1">
                    <mxGeometry x="313.5" y="10" width="120" height="30" as="geometry"/>
                </mxCell>
                <mxCell id="19" value="&lt;font style=&quot;font-size: 18px&quot;&gt;ver&lt;/font&gt;" style="rounded=0;whiteSpace=wrap;html=1;" parent="26" vertex="1">
                    <mxGeometry x="460" y="10" width="120" height="30" as="geometry"/>
                </mxCell>
                <mxCell id="21" value="&lt;font style=&quot;font-size: 18px&quot;&gt;set&lt;/font&gt;" style="rounded=0;whiteSpace=wrap;html=1;" parent="26" vertex="1">
                    <mxGeometry x="10" y="10" width="120" height="30" as="geometry"/>
                </mxCell>
                <mxCell id="22" value="&lt;font style=&quot;font-size: 18px&quot;&gt;get&lt;/font&gt;" style="rounded=0;whiteSpace=wrap;html=1;" parent="26" vertex="1">
                    <mxGeometry x="160" y="10" width="120" height="30" as="geometry"/>
                </mxCell>
                <mxCell id="24" value="Synchronized" style="rounded=0;whiteSpace=wrap;html=1;fontFamily=Comic Sans MS;fontSize=16;" parent="26" vertex="1">
                    <mxGeometry x="10" y="60" width="270" height="90" as="geometry"/>
                </mxCell>
                <mxCell id="25" value="Asycnchronized" style="rounded=0;whiteSpace=wrap;html=1;fontFamily=Comic Sans MS;fontSize=16;" parent="26" vertex="1">
                    <mxGeometry x="313.5" y="60" width="270" height="90" as="geometry"/>
                </mxCell>
                <mxCell id="28" style="edgeStyle=orthogonalEdgeStyle;rounded=0;orthogonalLoop=1;jettySize=auto;html=1;exitX=0.5;exitY=1;exitDx=0;exitDy=0;fontFamily=Comic Sans MS;fontSize=16;" parent="1" source="27" target="27" edge="1">
                    <mxGeometry relative="1" as="geometry"/>
                </mxCell>
                <mxCell id="29" value="&lt;span style=&quot;font-size: 25px&quot;&gt;client&lt;/span&gt;" style="text;html=1;strokeColor=none;fillColor=none;align=center;verticalAlign=middle;whiteSpace=wrap;rounded=0;fontSize=16;fontFamily=Comic Sans MS;" parent="1" vertex="1">
                    <mxGeometry x="640" y="10" width="80" height="40" as="geometry"/>
                </mxCell>
                <mxCell id="38" value="&lt;span style=&quot;font-size: 25px&quot;&gt;persister&lt;/span&gt;" style="text;html=1;strokeColor=none;fillColor=none;align=center;verticalAlign=middle;whiteSpace=wrap;rounded=0;fontSize=16;fontFamily=Comic Sans MS;" parent="1" vertex="1">
                    <mxGeometry x="640" y="510" width="150" height="40" as="geometry"/>
                </mxCell>
                <mxCell id="39" value="" style="shape=cylinder3;whiteSpace=wrap;html=1;boundedLbl=1;backgroundOutline=1;size=15;fontFamily=Comic Sans MS;fontSize=16;" parent="1" vertex="1">
                    <mxGeometry x="20" y="470" width="60" height="70" as="geometry"/>
                </mxCell>
                <mxCell id="40" value="" style="shape=cylinder3;whiteSpace=wrap;html=1;boundedLbl=1;backgroundOutline=1;size=15;fontFamily=Comic Sans MS;fontSize=16;" parent="1" vertex="1">
                    <mxGeometry x="130" y="470" width="60" height="70" as="geometry"/>
                </mxCell>
                <mxCell id="41" value="" style="shape=cylinder3;whiteSpace=wrap;html=1;boundedLbl=1;backgroundOutline=1;size=15;fontFamily=Comic Sans MS;fontSize=16;" parent="1" vertex="1">
                    <mxGeometry x="230" y="470" width="60" height="70" as="geometry"/>
                </mxCell>
                <mxCell id="42" value="" style="shape=cylinder3;whiteSpace=wrap;html=1;boundedLbl=1;backgroundOutline=1;size=15;fontFamily=Comic Sans MS;fontSize=16;" parent="1" vertex="1">
                    <mxGeometry x="350" y="470" width="60" height="70" as="geometry"/>
                </mxCell>
                <mxCell id="43" value="" style="shape=cylinder3;whiteSpace=wrap;html=1;boundedLbl=1;backgroundOutline=1;size=15;fontFamily=Comic Sans MS;fontSize=16;" parent="1" vertex="1">
                    <mxGeometry x="460" y="470" width="60" height="70" as="geometry"/>
                </mxCell>
                <mxCell id="44" value="" style="shape=cylinder3;whiteSpace=wrap;html=1;boundedLbl=1;backgroundOutline=1;size=15;fontFamily=Comic Sans MS;fontSize=16;" parent="1" vertex="1">
                    <mxGeometry x="560" y="470" width="60" height="70" as="geometry"/>
                </mxCell>
                <mxCell id="45" value="&lt;span style=&quot;font-size: 25px&quot;&gt;files&lt;/span&gt;" style="text;html=1;strokeColor=none;fillColor=none;align=center;verticalAlign=middle;whiteSpace=wrap;rounded=0;fontSize=16;fontFamily=Comic Sans MS;" parent="1" vertex="1">
                    <mxGeometry x="590" y="470" width="150" height="40" as="geometry"/>
                </mxCell>
                <mxCell id="49" value="DBFile" style="rounded=0;whiteSpace=wrap;html=1;fontFamily=Comic Sans MS;fontSize=16;" vertex="1" parent="1">
                    <mxGeometry x="230" y="850" width="110" height="40" as="geometry"/>
                </mxCell>
                <mxCell id="50" value="MetaFile" style="rounded=0;whiteSpace=wrap;html=1;fontFamily=Comic Sans MS;fontSize=16;" vertex="1" parent="1">
                    <mxGeometry x="150" y="740" width="110" height="40" as="geometry"/>
                </mxCell>
                <mxCell id="51" value="LogFile" style="rounded=0;whiteSpace=wrap;html=1;fontFamily=Comic Sans MS;fontSize=16;" vertex="1" parent="1">
                    <mxGeometry x="310" y="740" width="110" height="40" as="geometry"/>
                </mxCell>
                <mxCell id="52" value="" style="shape=flexArrow;endArrow=classic;html=1;" edge="1" parent="1">
                    <mxGeometry width="50" height="50" relative="1" as="geometry">
                        <mxPoint x="320" y="830" as="sourcePoint"/>
                        <mxPoint x="360" y="800" as="targetPoint"/>
                    </mxGeometry>
                </mxCell>
                <mxCell id="56" value="" style="shape=flexArrow;endArrow=classic;html=1;" edge="1" parent="1">
                    <mxGeometry width="50" height="50" relative="1" as="geometry">
                        <mxPoint x="250" y="830" as="sourcePoint"/>
                        <mxPoint x="210" y="800" as="targetPoint"/>
                    </mxGeometry>
                </mxCell>
            </root>
        </mxGraphModel>
    </diagram>
    <diagram id="wxAgiaVhdB2gb7gR1KPk" name="接口图">
        <mxGraphModel dx="772" dy="1167" grid="1" gridSize="10" guides="1" tooltips="1" connect="1" arrows="1" fold="1" page="1" pageScale="1" pageWidth="827" pageHeight="1169" math="0" shadow="0">
            <root>
                <mxCell id="Sv32b_LFhlF7Ovbl0cCC-0"/>
                <mxCell id="Sv32b_LFhlF7Ovbl0cCC-1" parent="Sv32b_LFhlF7Ovbl0cCC-0"/>
            </root>
        </mxGraphModel>
    </diagram>
</mxfile>